<?xml version="1.0" standalone="no"?>
<!DOCTYPE svg PUBLIC "-//W3C//DTD SVG 20010904//EN"
 "http://www.w3.org/TR/2001/REC-SVG-20010904/DTD/svg10.dtd">
<svg version="1.0" xmlns="http://www.w3.org/2000/svg"
 width="250.000000pt" height="288.000000pt" viewBox="0 0 250.000000 288.000000"
 preserveAspectRatio="xMidYMid meet">

<g transform="translate(0.000000,288.000000) scale(0.100000,-0.100000)"
fill="#000000" stroke="none">
<path d="M1867 2694 c-61 -15 -105 -34 -150 -68 l-29 -21 7 -91 c6 -82 5 -96
-18 -155 -40 -102 -50 -148 -50 -244 -1 -114 16 -191 60 -284 80 -169 244
-265 417 -247 86 9 157 46 230 119 152 151 199 376 127 599 -24 73 -33 123
-38 207 l-6 112 -71 34 c-41 19 -101 38 -143 44 -97 15 -265 12 -336 -5z m63
-353 c37 -35 145 -101 165 -101 3 0 3 20 -1 45 -7 52 -14 51 94 7 34 -14 65
-22 69 -18 4 3 -3 20 -15 36 -40 54 -33 60 71 60 l93 0 22 -62 c78 -223 28
-456 -129 -603 -77 -72 -125 -90 -244 -90 -119 0 -155 15 -247 103 -110 104
-153 211 -153 377 0 94 4 123 29 198 l28 87 88 0 88 0 42 -39z"/>
<path d="M1996 1875 c-15 -8 -44 -15 -62 -15 -39 0 -44 -13 -11 -34 22 -14 89
-19 214 -17 54 1 67 5 94 29 l32 28 -37 -4 c-21 -2 -50 3 -70 12 -43 20 -122
21 -160 1z"/>
<path d="M827 2110 c-19 -16 -40 -43 -46 -58 l-12 -29 -166 -6 c-91 -4 -199
-7 -240 -7 -63 0 -73 -2 -73 -17 0 -32 14 -41 73 -48 60 -8 62 -9 69 -75 2
-19 10 -26 30 -28 24 -3 28 1 33 35 10 59 13 65 37 61 20 -3 25 -12 33 -63 10
-54 13 -60 35 -60 23 0 26 5 34 63 l9 62 59 0 c56 0 61 -2 108 -46 61 -57 105
-66 173 -36 58 26 87 70 87 132 0 89 -64 150 -157 150 -44 0 -58 -5 -86 -30z
m133 -45 c48 -25 52 -93 10 -135 -27 -27 -62 -25 -99 6 -47 40 -41 101 14 132
27 15 41 15 75 -3z"/>
<path d="M76 1672 c-73 -9 -93 -30 -58 -64 21 -22 32 -23 183 -26 152 -3 160
-4 154 -22 -12 -37 12 -59 88 -80 258 -75 277 -84 277 -127 0 -15 4 -40 9 -57
5 -17 14 -56 19 -87 13 -71 123 -351 207 -527 116 -241 193 -332 280 -332 89
0 216 116 322 294 l50 85 123 -182 c288 -426 323 -471 306 -400 -4 16 -63 210
-130 433 -68 223 -136 444 -150 493 -15 48 -31 87 -36 87 -20 0 -200 -248
-200 -276 0 -9 14 -41 31 -72 l32 -55 -28 -56 c-62 -127 -214 -296 -289 -321
-81 -26 -155 51 -271 285 -82 167 -205 471 -212 525 l-5 35 148 58 c113 44
149 55 156 45 8 -14 107 -280 159 -430 19 -54 38 -97 43 -95 8 3 27 33 159
258 69 119 128 194 166 213 16 9 48 17 72 18 43 3 44 3 53 -37 5 -22 11 -42
12 -44 2 -2 48 27 104 63 89 58 100 68 90 85 -5 11 -7 32 -4 48 4 20 0 33 -13
45 -23 21 -164 108 -175 108 -4 0 -8 -52 -8 -115 l0 -115 -31 0 c-110 0 -170
-53 -295 -263 -53 -89 -104 -170 -114 -180 -16 -17 -18 -15 -43 55 -14 40 -47
132 -73 203 -51 143 -84 214 -109 235 -13 11 -43 67 -103 191 -1 3 70 8 158
12 104 3 166 9 175 17 21 18 18 47 -6 60 -23 13 -1121 23 -1223 12z m808 -111
c56 -9 96 -45 96 -86 0 -20 -11 -28 -81 -55 -120 -46 -135 -47 -167 -17 -36
34 -82 53 -209 83 -58 13 -114 29 -125 35 -27 15 -17 33 23 40 51 9 407 9 463
0z m138 -155 c6 -14 8 -31 5 -39 -6 -16 -162 -76 -219 -84 -30 -4 -38 -2 -48
17 -6 12 -10 23 -8 25 19 17 226 103 251 105 4 0 12 -11 19 -24z m727 -408
c29 -92 208 -684 218 -723 8 -30 -5 -14 -107 134 -162 235 -310 462 -310 475
0 24 142 206 160 206 5 0 22 -42 39 -92z"/>
<path d="M2343 1510 c-45 -28 -86 -56 -90 -63 -4 -6 -8 -34 -9 -60 -1 -55 12
-69 128 -140 77 -46 76 -48 77 124 1 125 -5 189 -18 189 -4 0 -44 -23 -88 -50z"/>
<path d="M2001 1438 c-65 -44 -64 -70 3 -105 37 -19 141 -22 173 -5 51 28 54
89 6 111 -16 8 -55 15 -88 18 -51 4 -65 2 -94 -19z"/>
<path d="M2060 1056 c-6 -8 -10 -25 -8 -38 2 -19 9 -23 38 -23 30 0 36 4 38
24 6 40 -43 66 -68 37z"/>
<path d="M2068 869 c-21 -12 -24 -49 -6 -67 36 -36 91 10 63 53 -15 24 -34 28
-57 14z"/>
<path d="M2066 664 c-31 -31 -13 -74 31 -74 43 0 52 59 12 80 -23 13 -25 13
-43 -6z"/>
</g>
</svg>
