<?xml version="1.0" standalone="no"?>
<!DOCTYPE svg PUBLIC "-//W3C//DTD SVG 20010904//EN"
 "http://www.w3.org/TR/2001/REC-SVG-20010904/DTD/svg10.dtd">
<svg version="1.0" xmlns="http://www.w3.org/2000/svg"
 width="705.000000pt" height="354.000000pt" viewBox="0 0 705.000000 354.000000"
 preserveAspectRatio="xMidYMid meet">

<g transform="translate(0.000000,354.000000) scale(0.100000,-0.100000)"
fill="#000000" stroke="none">
<path d="M1555 2974 c-11 -2 -43 -9 -72 -15 -28 -5 -70 -23 -92 -39 l-40 -30
6 -78 c5 -64 2 -84 -12 -112 -70 -134 -58 -340 25 -470 63 -97 150 -151 257
-158 97 -6 159 17 233 85 134 123 176 341 100 518 -15 35 -20 69 -20 133 l0
87 -34 22 c-18 12 -58 29 -87 38 -53 16 -224 29 -264 19z m-20 -286 c10 -21
117 -88 142 -88 8 0 8 7 0 30 -6 16 -8 32 -4 36 4 4 34 -5 66 -20 71 -34 90
-32 56 8 -14 16 -24 34 -22 40 2 7 34 11 77 11 l72 0 20 -50 c79 -200 3 -444
-166 -533 -43 -22 -64 -27 -131 -27 -70 0 -86 4 -128 28 -98 58 -163 151 -188
268 -16 73 -6 192 21 262 l23 57 76 0 c69 0 77 -2 86 -22z"/>
<path d="M1588 2303 c-8 -10 -22 -13 -40 -9 -31 6 -36 -5 -12 -28 12 -13 38
-16 119 -16 97 0 106 2 132 26 l28 25 -33 -6 c-23 -5 -39 -2 -50 8 -23 20
-127 20 -144 0z"/>
<path d="M2200 2950 c0 -5 18 -10 40 -10 l40 0 0 -305 0 -305 -40 0 c-22 0
-40 -4 -40 -10 0 -6 63 -10 170 -10 100 0 170 4 170 9 0 6 -21 11 -47 13 l-48
3 -3 137 -3 136 58 6 c158 16 215 40 252 107 50 89 -2 199 -107 229 -49 13
-442 14 -442 0z m374 -40 c17 -17 22 -36 24 -108 4 -116 -13 -147 -87 -157
-27 -4 -55 -4 -61 0 -12 7 -14 277 -2 289 14 15 105 -3 126 -24z"/>
<path d="M3737 2932 c-39 -43 -7 -122 48 -122 30 0 75 41 75 68 0 11 -9 31
-21 46 -25 32 -77 36 -102 8z"/>
<path d="M2914 2699 c-77 -22 -111 -101 -58 -135 51 -34 121 23 89 73 -14 20
-13 23 7 38 26 18 51 19 79 5 16 -9 19 -22 19 -79 l0 -68 -72 -12 c-90 -15
-135 -36 -159 -75 -26 -42 -24 -79 6 -114 42 -51 137 -50 209 1 27 19 29 19
38 3 14 -25 72 -47 105 -40 36 7 78 38 69 52 -3 5 -15 8 -26 5 -31 -8 -40 33
-40 173 0 69 -5 134 -10 144 -6 11 -27 24 -48 30 -44 12 -165 12 -208 -1z
m136 -253 c0 -73 -14 -96 -60 -96 -52 0 -78 70 -45 118 14 19 57 39 93 41 8 1
12 -18 12 -63z"/>
<path d="M3368 2703 c-60 -3 -78 -7 -78 -18 0 -9 10 -15 25 -15 l25 0 0 -170
0 -170 -25 0 c-14 0 -25 -4 -25 -10 0 -6 48 -10 125 -10 77 0 125 4 125 10 0
6 -16 10 -35 10 l-35 0 0 111 c0 128 13 189 46 220 27 26 41 20 25 -9 -6 -12
-11 -25 -11 -31 0 -16 38 -51 54 -51 45 0 63 83 26 120 -43 43 -112 10 -138
-65 -10 -28 -10 -25 -11 28 -1 31 -4 56 -8 55 -5 -1 -43 -4 -85 -5z"/>
<path d="M3753 2703 c-56 -3 -73 -7 -73 -18 0 -9 10 -15 25 -15 l25 0 -2 -167
c-3 -166 -3 -168 -25 -171 -13 -2 -23 -8 -23 -13 0 -5 47 -9 105 -9 63 0 105
4 105 10 0 6 -7 10 -15 10 -13 0 -15 28 -15 190 0 175 -1 190 -17 188 -10 -1
-51 -4 -90 -5z"/>
<path d="M4031 2692 c-75 -38 -93 -149 -33 -203 28 -25 103 -49 155 -49 33 0
67 -28 67 -54 0 -52 -87 -83 -151 -52 -35 16 -79 73 -79 101 0 8 -7 15 -15 15
-12 0 -15 -14 -15 -70 0 -70 10 -86 37 -59 8 8 20 6 44 -7 44 -23 124 -23 167
0 69 36 92 157 42 211 -28 30 -59 42 -143 54 -96 14 -120 39 -76 79 49 47 142
29 175 -34 29 -53 44 -44 44 26 0 61 -11 75 -37 49 -9 -9 -20 -9 -44 0 -46 16
-99 14 -138 -7z"/>
<path d="M674 2508 c-12 -5 -31 -27 -43 -49 l-22 -39 -187 -2 -187 -3 0 -25
c0 -23 4 -25 52 -28 l52 -3 3 -42 c3 -37 6 -42 28 -42 22 0 25 5 28 43 3 37 6
42 27 42 22 0 24 -5 27 -52 3 -49 5 -53 28 -53 23 0 25 4 28 53 l3 52 50 0
c45 0 53 -4 88 -40 33 -35 44 -40 82 -40 93 0 147 72 120 160 -20 67 -109 101
-177 68z m104 -54 c15 -10 22 -25 22 -49 0 -59 -54 -91 -99 -58 -74 55 1 160
77 107z"/>
<path d="M2447 2279 c-57 -13 -90 -33 -131 -80 -49 -54 -73 -109 -86 -196 -30
-216 87 -392 261 -393 40 0 69 7 102 24 l46 25 16 -25 c29 -44 42 -30 49 53 9
106 8 123 -6 123 -7 0 -26 -25 -42 -55 -34 -65 -74 -102 -120 -110 -97 -19
-116 10 -128 197 -12 167 -3 312 20 360 49 97 180 57 228 -69 28 -73 44 -56
44 47 0 95 -4 101 -44 75 -22 -14 -27 -14 -57 4 -42 24 -103 32 -152 20z"/>
<path d="M5208 2283 c-60 -3 -78 -7 -78 -18 0 -10 10 -15 30 -15 l30 0 0 -305
0 -305 -30 0 c-16 0 -30 -4 -30 -10 0 -6 47 -10 120 -10 73 0 120 4 120 10 0
6 -11 10 -25 10 -25 0 -25 1 -25 90 0 50 2 90 4 90 5 0 105 -146 112 -164 4
-12 0 -16 -15 -16 -12 0 -21 -4 -21 -10 0 -6 48 -10 125 -10 70 0 125 4 125 9
0 5 -10 11 -22 13 -14 2 -51 43 -111 126 -99 137 -98 129 -23 184 24 17 52 28
73 28 23 0 33 5 33 15 0 12 -18 15 -100 15 -82 0 -100 -3 -100 -15 0 -10 10
-15 30 -15 17 0 30 -4 30 -10 0 -5 -30 -39 -67 -75 l-68 -65 -3 230 c-2 211
-4 230 -20 228 -9 -1 -52 -4 -94 -5z"/>
<path d="M4080 2193 c0 -49 -3 -98 -6 -110 -5 -17 -2 -23 10 -23 9 0 18 12 22
28 12 47 53 121 77 137 13 8 37 18 55 21 l32 7 0 -307 0 -306 -50 0 c-27 0
-50 -4 -50 -10 0 -6 67 -10 180 -10 106 0 180 4 180 9 0 6 -21 11 -47 13 l-48
3 -3 303 -2 302 22 0 c57 0 118 -65 139 -147 7 -25 17 -43 25 -43 15 0 19 89
8 174 l-7 46 -268 0 -269 0 0 -87z"/>
<path d="M12 2138 c-16 -16 -15 -33 4 -52 12 -13 40 -16 143 -16 l128 0 -4
-24 c-7 -34 22 -50 137 -75 106 -24 165 -53 156 -77 -3 -8 1 -31 9 -51 9 -21
12 -40 7 -45 -6 -6 19 -83 60 -186 126 -322 216 -482 293 -519 29 -14 41 -14
74 -4 71 21 173 128 241 254 l26 47 165 -245 c90 -135 167 -245 172 -245 13 0
8 27 -22 122 -50 157 -200 651 -207 681 -3 15 -10 30 -15 32 -4 3 -39 -36 -77
-87 -105 -142 -100 -129 -67 -180 16 -23 28 -51 28 -60 -1 -10 -21 -50 -44
-90 -52 -89 -150 -190 -202 -207 -33 -11 -41 -10 -72 9 -70 43 -161 212 -280
521 -53 139 -53 140 -32 149 12 4 46 17 75 29 28 12 75 30 102 41 l51 20 20
-48 c20 -44 139 -379 139 -389 0 -17 27 23 81 120 129 231 166 273 244 279 39
3 40 2 45 -35 l5 -37 80 51 c44 28 82 53 83 54 2 2 -1 11 -6 21 -6 11 -7 27
-2 40 8 20 0 27 -71 73 -44 28 -82 51 -85 51 -2 0 -4 -43 -4 -95 l0 -95 -32 0
c-55 -1 -115 -35 -150 -85 -18 -25 -65 -103 -105 -172 -43 -75 -74 -121 -77
-112 -3 8 -24 68 -47 134 -57 170 -98 264 -119 275 -10 5 -21 21 -24 36 -4 15
-14 33 -21 41 -8 8 -15 23 -15 33 0 10 -10 26 -22 34 -20 14 -10 16 122 18
123 3 144 5 154 21 8 12 8 22 0 35 -10 16 -48 17 -520 20 -388 2 -513 -1 -522
-10z m728 -89 c29 -11 59 -65 43 -80 -5 -3 -45 -20 -90 -37 -82 -29 -82 -29
-100 -10 -29 33 -83 55 -176 73 -88 18 -129 36 -114 52 22 22 375 23 437 2z
m81 -125 c5 -15 8 -29 5 -31 -2 -2 -48 -20 -102 -39 -92 -33 -99 -34 -111 -18
-7 10 -13 23 -13 29 0 9 174 81 203 84 4 1 12 -11 18 -25z m589 -354 c17 -58
63 -208 102 -333 38 -126 68 -230 67 -232 -4 -3 -342 497 -343 507 -2 13 128
178 134 171 5 -4 22 -55 40 -113z"/>
<path d="M1860 2006 c-53 -34 -78 -56 -70 -61 8 -5 10 -20 7 -41 -5 -32 -3
-34 71 -82 42 -28 80 -48 85 -45 10 6 9 271 -1 277 -5 3 -46 -19 -92 -48z"/>
<path d="M2860 1998 c-58 -29 -79 -68 -56 -103 32 -48 99 -41 112 12 4 15 2
35 -6 46 -10 17 -10 23 6 34 24 18 69 16 88 -3 11 -11 16 -34 16 -78 l0 -63
-52 -7 c-131 -15 -198 -61 -198 -134 0 -96 122 -131 224 -63 l30 20 29 -25
c41 -34 70 -39 114 -17 38 18 62 60 27 46 -34 -13 -44 23 -44 160 0 73 -5 137
-11 149 -28 52 -196 67 -279 26z m160 -236 c0 -68 -19 -102 -57 -102 -41 0
-63 27 -63 75 0 48 13 64 63 75 57 14 57 14 57 -48z"/>
<path d="M3328 2013 c-60 -3 -78 -7 -78 -18 0 -9 10 -15 25 -15 l25 0 0 -170
0 -170 -25 0 c-14 0 -25 -4 -25 -10 0 -6 50 -10 130 -10 74 0 130 4 130 9 0 6
-17 11 -37 13 l-38 3 2 125 c3 106 6 131 25 170 13 25 31 47 41 48 16 3 17 1
8 -16 -18 -33 -13 -60 14 -78 23 -15 27 -15 50 0 51 33 21 126 -41 126 -40 0
-64 -18 -85 -63 l-19 -42 0 53 c0 36 -4 51 -12 50 -7 -1 -48 -4 -90 -5z"/>
<path d="M3765 2007 c-49 -22 -101 -88 -114 -144 -37 -151 102 -293 248 -253
49 13 104 58 121 100 15 35 3 55 -14 25 -6 -11 -27 -37 -47 -57 -32 -33 -43
-38 -80 -38 -24 0 -49 4 -56 8 -21 13 -33 61 -33 128 l0 64 121 0 122 0 -6 36
c-8 46 -27 76 -73 110 -29 23 -49 29 -98 31 -37 2 -73 -2 -91 -10z m119 -29
c9 -12 16 -42 16 -65 l0 -43 -55 0 -55 0 0 43 c0 51 22 87 55 87 13 0 31 -10
39 -22z"/>
<path d="M4750 2004 c-76 -33 -100 -84 -60 -124 27 -27 62 -25 88 3 25 27 27
39 10 68 -11 17 -10 22 6 35 22 16 64 18 86 4 9 -6 16 -32 18 -78 l4 -69 -63
-7 c-78 -9 -153 -40 -174 -72 -19 -30 -19 -93 0 -121 35 -50 138 -51 208 -1
l28 20 30 -28 c35 -34 91 -38 132 -11 30 19 38 53 11 43 -36 -14 -44 11 -44
145 0 70 -4 139 -10 154 -6 15 -24 32 -45 40 -46 20 -179 19 -225 -1z m148
-224 c5 -50 -14 -108 -39 -115 -52 -17 -98 31 -84 88 8 31 24 45 62 57 46 14
58 8 61 -30z"/>
<path d="M5758 1998 c-104 -64 -134 -188 -72 -295 62 -107 206 -133 298 -53
35 32 64 86 51 98 -4 4 -12 -2 -19 -13 -6 -11 -27 -37 -47 -57 -32 -33 -43
-38 -80 -38 -24 0 -49 4 -56 8 -21 13 -33 61 -33 128 l0 64 121 0 122 0 -6 36
c-8 46 -27 76 -73 111 -30 22 -49 28 -103 31 -55 2 -72 -1 -103 -20z m136 -20
c9 -12 16 -42 16 -65 l0 -43 -55 0 -55 0 0 43 c0 51 22 87 55 87 13 0 31 -10
39 -22z"/>
<path d="M6153 2013 c-56 -3 -73 -7 -73 -18 0 -9 10 -15 25 -15 l25 0 -2 -167
c-3 -166 -3 -168 -25 -171 -13 -2 -23 -8 -23 -13 0 -5 55 -9 125 -9 77 0 125
4 125 10 0 6 -16 10 -36 10 l-36 0 4 133 c4 137 19 198 55 211 22 9 26 1 13
-24 -25 -47 22 -94 66 -65 18 12 24 24 24 54 0 45 -24 71 -66 71 -37 -1 -60
-18 -84 -66 l-19 -39 -1 53 c0 36 -4 51 -12 50 -7 -1 -46 -4 -85 -5z"/>
<path d="M1624 1970 c-37 -12 -68 -44 -61 -64 18 -45 120 -65 182 -35 40 19
43 68 5 86 -38 17 -91 23 -126 13z"/>
<path d="M1644 1646 c-11 -28 1 -51 25 -51 32 0 49 28 32 49 -17 20 -50 21
-57 2z"/>
<path d="M2378 1561 c-80 -26 -128 -99 -128 -195 0 -60 22 -116 57 -148 25
-23 74 -43 158 -63 90 -22 125 -53 125 -109 0 -134 -183 -175 -264 -58 -13 20
-28 49 -31 65 -5 17 -14 27 -26 27 -17 0 -19 -8 -19 -95 0 -103 4 -108 50 -75
28 20 28 20 71 0 112 -50 234 0 279 115 16 40 16 155 0 185 -34 67 -75 92
-204 127 -109 29 -126 42 -126 97 1 111 135 144 216 54 12 -12 31 -42 43 -65
35 -70 51 -57 51 41 0 47 -4 88 -10 91 -5 3 -23 -1 -38 -11 -27 -15 -31 -15
-60 0 -39 20 -108 28 -144 17z"/>
<path d="M4140 1543 c-49 -18 -64 -68 -34 -111 32 -47 124 -16 124 42 0 43
-51 83 -90 69z"/>
<path d="M1653 1503 c-19 -7 -16 -51 4 -62 37 -20 71 27 41 57 -13 13 -24 14
-45 5z"/>
<path d="M1652 1338 c-30 -30 3 -77 40 -57 24 13 23 46 -1 59 -24 13 -24 13
-39 -2z"/>
<path d="M5458 1294 c-11 -12 -21 -13 -42 -4 -45 17 -118 12 -154 -10 -59 -36
-78 -118 -42 -177 25 -41 43 -50 131 -64 94 -14 109 -22 109 -59 0 -40 -32
-60 -96 -60 -62 0 -105 30 -126 85 -21 60 -38 44 -38 -35 0 -70 7 -83 30 -55
11 13 17 13 47 -6 49 -30 150 -24 189 11 52 49 67 115 38 176 -21 44 -55 61
-142 74 -38 5 -76 12 -85 16 -38 14 -26 67 19 84 58 23 123 1 149 -50 26 -49
45 -39 45 24 0 60 -9 73 -32 50z"/>
<path d="M2845 1284 c-70 -36 -108 -101 -109 -184 -2 -122 81 -210 197 -210
34 0 74 7 94 16 36 18 76 64 88 102 11 37 -19 27 -38 -13 -9 -19 -31 -44 -49
-55 -33 -20 -93 -26 -115 -12 -21 13 -33 61 -33 128 l0 64 120 0 c130 0 128
-1 110 59 -11 39 -51 86 -92 107 -36 19 -135 18 -173 -2z m129 -26 c9 -12 16
-42 16 -65 l0 -43 -55 0 -55 0 0 49 c0 55 17 81 55 81 13 0 31 -10 39 -22z"/>
<path d="M3228 1293 c-65 -4 -92 -18 -45 -25 22 -3 22 -5 25 -170 l2 -168 -25
0 c-16 0 -25 -6 -25 -15 0 -13 21 -15 125 -15 104 0 125 2 125 15 0 11 -11 15
-36 15 l-36 0 4 133 c2 111 6 138 24 167 23 40 65 59 44 20 -17 -32 -4 -68 27
-76 37 -10 58 7 61 50 4 47 -19 76 -60 76 -44 0 -68 -17 -89 -63 l-19 -42 0
53 c0 44 -3 52 -17 50 -10 -1 -48 -3 -85 -5z"/>
<path d="M4113 1293 c-62 -4 -85 -18 -40 -25 22 -3 22 -5 25 -170 l2 -168 -25
0 c-16 0 -25 -6 -25 -15 0 -12 19 -15 110 -15 91 0 110 3 110 15 0 8 -9 15
-20 15 -19 0 -20 7 -20 185 l0 185 -27 -2 c-16 -1 -56 -3 -90 -5z"/>
<path d="M4455 1283 c-45 -23 -96 -74 -111 -110 -8 -18 -14 -56 -14 -85 0 -67
30 -121 88 -162 37 -26 55 -31 115 -34 62 -3 77 -1 106 20 38 25 66 61 76 96
11 36 -12 25 -37 -19 -27 -48 -62 -69 -117 -69 -72 0 -85 33 -79 208 4 129 15
152 79 152 44 0 57 -14 35 -39 -45 -50 2 -123 67 -105 67 20 58 108 -14 145
-48 24 -150 25 -194 2z"/>
<path d="M4865 1282 c-75 -47 -111 -121 -102 -209 7 -62 35 -113 84 -150 29
-22 49 -28 104 -31 60 -4 74 -1 113 22 47 27 98 107 74 115 -7 2 -14 -2 -16
-9 -3 -8 -21 -32 -41 -53 -30 -31 -46 -40 -83 -44 -37 -4 -49 -2 -67 16 -18
18 -21 33 -21 101 l0 80 120 0 120 0 -6 28 c-14 57 -33 90 -70 118 -31 24 -48
29 -108 32 -56 2 -77 -1 -101 -16z m134 -16 c6 -8 14 -37 18 -65 l6 -51 -57 0
-56 0 0 53 c0 29 5 58 12 65 16 16 63 15 77 -2z"/>
<path d="M3540 1280 c0 -5 10 -10 23 -10 20 0 34 -25 112 -190 57 -120 95
-189 103 -188 7 2 44 75 83 163 88 205 88 204 116 211 47 12 21 24 -52 24 -76
0 -100 -13 -45 -23 17 -4 30 -11 30 -18 0 -16 -71 -179 -79 -179 -10 0 -101
187 -94 194 4 3 17 6 30 6 13 0 23 5 23 10 0 6 -48 10 -125 10 -77 0 -125 -4
-125 -10z"/>
</g>
</svg>
