<?xml version="1.0" standalone="no"?>
<!DOCTYPE svg PUBLIC "-//W3C//DTD SVG 20010904//EN"
 "http://www.w3.org/TR/2001/REC-SVG-20010904/DTD/svg10.dtd">
<svg version="1.0" xmlns="http://www.w3.org/2000/svg"
 width="338.000000pt" height="338.000000pt" viewBox="0 0 338.000000 338.000000"
 preserveAspectRatio="xMidYMid meet">

<g transform="translate(0.000000,338.000000) scale(0.100000,-0.100000)"
fill="#000000" stroke="none">
<path d="M1497 2481 l-387 -56 -236 -300 c-130 -165 -238 -303 -241 -307 -2
-5 170 -8 384 -8 l388 0 237 323 c130 177 251 341 268 365 l32 42 -29 -1 c-15
-1 -202 -27 -416 -58z"/>
<path d="M1950 2509 c0 -11 20 -46 43 -77 24 -31 126 -169 227 -307 198 -271
205 -280 198 -250 -5 19 -454 655 -463 655 -3 0 -5 -9 -5 -21z"/>
<path d="M1593 1988 l-160 -223 -362 -3 -361 -2 1 -378 c0 -236 4 -369 9 -354
5 12 20 27 34 33 16 8 26 23 30 45 14 71 111 109 167 66 38 -30 97 -35 127
-12 45 36 122 21 160 -32 10 -13 18 -15 36 -8 74 28 149 -58 113 -129 -14 -27
-13 -30 7 -36 20 -7 20 -8 1 -11 -11 -2 -200 -22 -420 -44 -493 -49 -485 -48
-485 -65 0 -10 9 -12 32 -9 18 3 319 36 668 74 1377 150 1679 185 1672 190 -4
3 -13 17 -21 32 -16 32 -61 53 -95 44 -32 -8 -86 23 -86 49 0 28 -27 64 -56
76 -32 12 -90 -11 -99 -39 -4 -14 -16 -22 -38 -24 l-32 -3 -5 -90 -5 -90 -115
-12 c-63 -6 -136 -14 -162 -17 l-48 -5 0 285 0 285 -92 -6 c-51 -3 -112 -8
-135 -11 l-43 -5 -2 -287 -3 -287 -160 -17 c-88 -9 -178 -17 -201 -17 l-41 -1
5 388 5 387 163 243 c90 133 162 242 160 242 -2 0 -75 -100 -163 -222z m467
-748 c0 -40 -4 -70 -10 -70 -6 0 -10 30 -10 70 0 40 4 70 10 70 6 0 10 -30 10
-70z"/>
<path d="M1900 2019 l0 -72 46 7 c26 3 53 6 60 6 10 0 14 17 14 65 l0 65 -60
0 -60 0 0 -71z"/>
<path d="M2047 2053 c-4 -3 -7 -69 -7 -145 l0 -138 49 0 c84 0 81 -6 81 151
l0 139 -58 0 c-32 0 -62 -3 -65 -7z"/>
<path d="M1788 2043 l-48 -4 0 -153 0 -153 58 4 c31 3 63 6 70 8 9 3 12 43 12
155 0 149 0 150 -22 148 -13 -1 -44 -3 -70 -5z"/>
<path d="M1958 1932 l-58 -3 0 -106 0 -105 58 7 c31 4 58 8 60 10 1 1 1 47 0
101 l-3 99 -57 -3z"/>
<path d="M2193 1583 c-9 -3 -13 -29 -13 -77 l0 -73 53 4 c97 8 92 3 89 83 l-4
70 -56 -1 c-31 0 -63 -3 -69 -6z"/>
<path d="M1620 1551 l-65 -6 -3 -82 -3 -83 29 0 c16 0 57 3 91 6 l61 7 0 83
c0 81 -1 84 -22 82 -13 -1 -52 -4 -88 -7z"/>
<path d="M2222 1413 l-43 -4 3 -77 3 -77 35 3 c19 1 51 5 70 8 l35 5 0 74 0
75 -30 -2 c-16 -1 -49 -3 -73 -5z"/>
<path d="M1690 1363 c-19 -2 -59 -6 -87 -9 l-53 -5 0 -86 0 -86 87 7 c48 3 88
8 90 10 2 2 3 41 1 87 l-3 84 -35 -2z"/>
<path d="M2635 923 c-110 -13 -636 -74 -1170 -136 l-970 -112 -3 -49 -3 -48
33 5 c18 4 274 38 568 77 294 39 807 107 1140 151 333 43 617 82 633 85 20 4
27 11 27 30 0 29 12 29 -255 -3z"/>
<path d="M1689 117 c6 -8 8 -17 4 -20 -3 -4 2 -8 13 -8 12 -1 8 -4 -11 -9
l-30 -9 29 2 c19 1 30 8 32 20 1 9 -2 15 -7 11 -5 -3 -9 2 -9 10 0 9 -7 16
-16 16 -13 0 -14 -3 -5 -13z"/>
<path d="M1222 95 c0 -16 2 -22 5 -12 2 9 2 23 0 30 -3 6 -5 -1 -5 -18z"/>
<path d="M1512 95 c0 -16 2 -22 5 -12 2 9 2 23 0 30 -3 6 -5 -1 -5 -18z"/>
<path d="M1192 90 c0 -14 2 -19 5 -12 2 6 2 18 0 25 -3 6 -5 1 -5 -13z"/>
<path d="M1344 99 c-3 -6 -2 -15 3 -20 5 -5 9 -1 9 11 0 23 -2 24 -12 9z"/>
<path d="M1372 85 c0 -16 2 -22 5 -12 2 9 2 23 0 30 -3 6 -5 -1 -5 -18z"/>
<path d="M1392 90 c0 -14 2 -19 5 -12 2 6 2 18 0 25 -3 6 -5 1 -5 -13z"/>
<path d="M1485 99 c-4 -6 -5 -12 -2 -15 2 -3 7 2 10 11 7 17 1 20 -8 4z"/>
<path d="M1790 99 c0 -5 5 -7 10 -4 6 3 10 8 10 11 0 2 -4 4 -10 4 -5 0 -10
-5 -10 -11z"/>
<path d="M1912 90 c0 -14 2 -19 5 -12 2 6 2 18 0 25 -3 6 -5 1 -5 -13z"/>
<path d="M2132 90 c0 -14 2 -19 5 -12 2 6 2 18 0 25 -3 6 -5 1 -5 -13z"/>
<path d="M2157 90 c3 -11 7 -20 9 -20 2 0 4 9 4 20 0 11 -4 20 -9 20 -5 0 -7
-9 -4 -20z"/>
<path d="M1241 84 c0 -11 3 -14 6 -6 3 7 2 16 -1 19 -3 4 -6 -2 -5 -13z"/>
<path d="M1821 84 c0 -11 3 -14 6 -6 3 7 2 16 -1 19 -3 4 -6 -2 -5 -13z"/>
<path d="M1597 71 c-4 -17 -3 -21 5 -13 5 5 8 16 6 23 -3 8 -7 3 -11 -10z"/>
</g>
</svg>
