<?xml version="1.0" standalone="no"?>
<!DOCTYPE svg PUBLIC "-//W3C//DTD SVG 20010904//EN"
 "http://www.w3.org/TR/2001/REC-SVG-20010904/DTD/svg10.dtd">
<svg version="1.0" xmlns="http://www.w3.org/2000/svg"
 width="512.000000pt" height="512.000000pt" viewBox="0 0 512.000000 512.000000"
 preserveAspectRatio="xMidYMid meet">

<g transform="translate(0.000000,512.000000) scale(0.100000,-0.100000)"
fill="#000000" stroke="none">
<path d="M1507 5110 c-78 -14 -169 -62 -230 -124 -180 -179 -181 -464 -3 -641
181 -180 461 -179 642 2 175 174 175 460 0 635 -110 110 -251 154 -409 128z"/>
<path d="M1972 4211 c-7 -4 -30 -55 -51 -112 l-39 -104 -75 -6 c-84 -7 -92
-10 -100 -39 -6 -22 15 -51 87 -127 51 -54 79 -56 108 -7 l21 35 188 -453
c104 -249 193 -463 198 -475 l10 -22 83 23 c58 16 82 27 80 37 -2 8 -111 217
-243 466 -131 248 -239 454 -239 457 0 4 27 -7 60 -24 64 -32 89 -37 108 -18
20 20 15 39 -59 199 -79 173 -97 196 -137 170z"/>
<path d="M2151 4199 c-24 -7 -32 -15 -28 -27 2 -9 120 -302 262 -650 141 -349
254 -636 251 -639 -7 -7 -407 -115 -411 -111 -1 2 -102 199 -225 438 -123 239
-247 480 -276 534 l-52 99 -96 -145 c-125 -191 -208 -340 -255 -463 -53 -136
-64 -195 -59 -307 3 -84 8 -104 38 -163 70 -139 222 -225 396 -225 251 0 336
330 114 443 -30 15 -56 31 -58 36 -4 11 36 99 80 179 l35 63 74 -122 c41 -67
91 -151 112 -188 59 -103 259 -505 310 -621 124 -288 199 -629 249 -1135 6
-69 12 -305 13 -555 1 -432 1 -435 24 -482 44 -92 150 -158 252 -158 97 0 209
75 252 168 22 47 22 48 25 1016 l3 969 107 -113 c118 -126 278 -271 357 -325
28 -20 68 -38 88 -42 l37 -6 0 38 c0 95 -194 474 -570 1110 -42 72 -116 207
-165 300 -48 94 -135 255 -192 359 -57 103 -103 190 -101 191 2 2 224 -48 493
-110 288 -67 512 -115 543 -115 114 0 202 87 202 200 0 73 -47 152 -111 185
-31 17 -1575 375 -1638 380 -26 3 -61 0 -80 -6z"/>
</g>
</svg>
